<?xml version="1.0" standalone="no"?>
<!DOCTYPE svg PUBLIC "-//W3C//DTD SVG 20010904//EN"
 "http://www.w3.org/TR/2001/REC-SVG-20010904/DTD/svg10.dtd">
<svg version="1.0" xmlns="http://www.w3.org/2000/svg"
 width="500.000000pt" height="688.000000pt" viewBox="0 0 500.000000 688.000000"
 preserveAspectRatio="xMidYMid meet">

<g transform="translate(0.000000,688.000000) scale(0.100000,-0.100000)"
fill="#000000" stroke="none">
<path d="M3650 5240 c0 -5 -12 -12 -27 -18 -65 -23 -121 -111 -118 -185 2 -50
52 -156 75 -158 27 -2 34 -4 75 -22 72 -32 114 -32 171 2 32 19 57 42 65 61 8
16 21 30 30 30 20 0 28 41 24 111 -5 89 -18 108 -108 157 -49 28 -66 32 -122
31 -36 -1 -65 -5 -65 -9z m64 -146 c33 -33 7 -94 -40 -94 -24 0 -64 35 -64 55
0 46 71 73 104 39z m128 -19 c23 -50 -37 -108 -77 -75 -18 15 -20 71 -3 88 22
22 67 14 80 -13z"/>
<path d="M3686 5063 c-11 -11 -6 -23 9 -23 8 0 15 4 15 9 0 13 -16 22 -24 14z"/>
<path d="M3773 5063 c-18 -7 -16 -23 2 -23 8 0 15 7 15 15 0 8 -1 15 -2 14 -2
0 -9 -3 -15 -6z"/>
<path d="M2621 5145 c-45 -16 -70 -32 -89 -56 -15 -19 -30 -37 -35 -40 -4 -3
-11 -38 -14 -77 -5 -57 -2 -76 11 -96 9 -14 16 -30 16 -35 0 -15 42 -54 75
-70 17 -7 54 -20 84 -27 51 -14 55 -13 76 6 12 11 26 20 32 20 27 0 96 47 115
79 23 36 28 114 9 149 -7 13 -7 22 1 30 12 12 -14 43 -85 96 -61 46 -110 52
-196 21z m149 -105 c24 -24 26 -63 4 -81 -13 -11 -21 -10 -49 5 -39 21 -49 47
-28 75 18 26 47 27 73 1z m-80 -80 c11 -11 20 -31 20 -45 0 -46 -77 -63 -104
-23 -22 31 -20 54 6 72 30 21 54 20 78 -4z"/>
<path d="M2710 4995 c0 -9 5 -15 11 -13 6 2 11 8 11 13 0 5 -5 11 -11 13 -6 2
-11 -4 -11 -13z"/>
<path d="M2660 4935 c0 -8 5 -15 10 -15 6 0 10 7 10 15 0 8 -4 15 -10 15 -5 0
-10 -7 -10 -15z"/>
<path d="M1587 4199 c-9 -5 -22 -7 -28 -4 -19 12 -114 -18 -147 -46 -18 -16
-37 -29 -42 -29 -6 0 -10 -9 -10 -20 0 -11 -4 -20 -10 -20 -19 0 -31 -43 -34
-126 -3 -76 -1 -86 16 -95 11 -6 46 -39 78 -72 l58 -62 73 0 c62 0 82 4 119
26 25 14 50 24 57 22 19 -7 51 33 83 100 31 68 42 115 29 123 -5 3 -9 13 -9
23 0 10 -10 29 -21 42 -12 13 -32 40 -45 61 -17 27 -36 40 -73 53 -28 9 -53
21 -56 26 -8 11 -15 11 -38 -2z m-14 -161 c24 -28 21 -45 -11 -78 -22 -21 -35
-27 -56 -23 -61 12 -72 92 -16 120 30 15 59 8 83 -19z m116 -57 c20 -13 17
-60 -5 -81 -30 -29 -59 -33 -85 -11 l-23 19 18 41 c16 35 23 41 50 41 17 0 37
-4 45 -9z"/>
<path d="M1527 3994 c-9 -10 2 -24 19 -24 8 0 14 7 14 15 0 15 -21 21 -33 9z"/>
<path d="M1610 3945 c0 -8 7 -15 15 -15 8 0 15 7 15 15 0 8 -7 15 -15 15 -8 0
-15 -7 -15 -15z"/>
<path d="M2648 4198 c-7 -4 -38 -8 -68 -7 -95 1 -104 0 -134 -26 -16 -14 -34
-25 -40 -25 -7 0 -19 -9 -29 -20 -9 -11 -26 -20 -37 -20 -16 0 -20 -7 -20 -33
0 -21 -7 -36 -20 -45 -11 -7 -20 -18 -20 -25 0 -6 -7 -24 -14 -39 -9 -17 -11
-30 -5 -34 6 -4 5 -14 -4 -28 -11 -16 -12 -27 -5 -40 5 -9 7 -24 4 -32 -3 -8
-1 -14 4 -14 6 0 10 -20 10 -45 0 -33 4 -45 15 -45 9 0 15 -9 15 -21 0 -23 65
-89 87 -89 7 0 13 -4 13 -9 0 -5 24 -21 53 -36 28 -14 63 -32 76 -40 23 -13
53 -6 71 16 5 6 119 21 153 21 9 -1 17 3 17 9 0 5 13 9 30 9 20 0 35 8 46 25
9 14 21 25 28 25 12 1 48 72 66 134 7 22 10 58 6 85 -6 45 -5 48 21 61 l28 12
-23 11 c-14 6 -21 16 -17 25 3 8 -2 23 -11 33 -10 11 -14 19 -10 19 4 0 -14
21 -39 47 -25 26 -45 53 -45 60 0 7 -4 13 -10 13 -5 0 -10 7 -10 15 0 9 -9 15
-21 15 -12 0 -23 8 -26 20 -6 23 -14 25 -31 8 -8 -8 -15 -8 -24 -1 -19 15 -65
21 -80 11z m103 -207 c38 -38 40 -91 4 -126 -42 -42 -75 -30 -134 47 -10 14
-10 25 -1 53 21 62 82 75 131 26z m-188 -72 c25 -11 57 -57 57 -83 0 -81 -118
-115 -170 -49 -29 37 -26 79 9 114 31 31 64 36 104 18z"/>
<path d="M2652 3938 c-15 -15 -3 -38 19 -38 12 0 19 7 19 19 0 22 -23 34 -38
19z"/>
<path d="M2547 3873 c-15 -14 -7 -43 12 -43 26 0 36 17 21 35 -14 16 -23 19
-33 8z"/>
<path d="M1002 3584 c-13 -12 -31 -20 -41 -17 -21 5 -97 -32 -105 -53 -3 -8
-15 -14 -26 -14 -11 0 -23 -8 -27 -17 -3 -10 -13 -26 -21 -35 -8 -10 -11 -18
-6 -18 4 0 -7 -13 -26 -29 -28 -23 -33 -32 -23 -42 10 -10 9 -17 -4 -31 -17
-20 -21 -86 -7 -110 4 -7 9 -21 10 -32 5 -41 33 -139 43 -149 6 -6 24 -10 41
-10 22 0 38 -9 56 -30 14 -16 28 -27 31 -23 3 3 20 -5 37 -17 31 -24 96 -33
210 -30 45 1 141 62 165 105 13 21 23 27 46 25 24 -2 29 1 27 17 -2 10 2 22 8
26 6 4 13 16 15 26 2 10 4 19 5 19 1 0 4 25 6 55 2 30 7 62 10 70 11 26 12 54
2 67 -6 7 -8 22 -5 32 3 13 -1 21 -14 24 -11 3 -19 14 -19 26 0 12 -6 21 -15
21 -8 0 -15 7 -15 15 0 8 -4 15 -10 15 -12 0 -100 62 -100 71 0 16 -74 40
-127 41 -32 0 -67 6 -78 12 -17 10 -24 8 -43 -10z m56 -239 c50 -58 10 -144
-68 -145 -46 0 -76 21 -90 65 -21 63 30 119 100 110 21 -3 44 -15 58 -30z
m187 -40 c27 -27 30 -41 15 -80 -27 -71 -117 -94 -148 -39 -11 20 -4 93 12
113 28 36 88 39 121 6z"/>
<path d="M1004 3285 c-4 -9 -2 -21 4 -27 15 -15 44 -1 40 19 -4 23 -36 29 -44
8z"/>
<path d="M1137 3273 c-15 -14 -7 -43 12 -43 24 0 33 13 25 34 -6 16 -25 21
-37 9z"/>
<path d="M2801 2334 c-24 -17 -91 -146 -91 -176 0 -22 -16 -31 -57 -32 -33 -1
-34 1 -76 94 -43 97 -68 123 -109 112 -40 -10 -52 -61 -42 -169 9 -91 9 -101
-12 -148 -12 -27 -37 -103 -55 -169 l-33 -119 -25 34 c-47 64 -136 147 -164
154 -20 5 -33 2 -49 -11 -19 -18 -20 -27 -15 -119 6 -112 35 -219 71 -262 12
-15 26 -36 29 -46 4 -10 11 -15 17 -12 5 3 10 -1 10 -10 0 -10 -22 -38 -49
-64 -27 -25 -50 -53 -53 -61 -4 -13 -13 -13 -64 -2 -71 14 -114 15 -114 3 0
-9 19 -14 97 -26 51 -8 61 -20 37 -46 -11 -13 -30 -19 -56 -19 -27 0 -38 -4
-35 -12 2 -8 15 -12 30 -10 36 4 34 -8 -8 -84 -45 -79 -69 -173 -60 -230 3
-24 11 -44 16 -44 5 0 9 -7 7 -16 -5 -26 19 -28 27 -3 5 16 2 26 -10 35 -15
11 -17 24 -13 82 4 57 13 85 51 158 41 80 48 89 71 86 30 -3 33 5 10 23 -14
10 -15 14 -3 33 8 12 20 22 27 22 8 0 12 6 9 14 -7 19 42 87 75 105 15 7 29
21 32 30 3 9 9 22 12 29 3 6 -1 12 -9 12 -7 0 -19 11 -25 25 -6 14 -16 25 -22
25 -15 0 -49 74 -65 145 -19 79 -23 211 -8 226 28 28 133 -75 213 -207 28 -47
35 -68 35 -111 0 -45 3 -53 19 -53 17 0 18 6 13 53 -3 29 -13 68 -22 87 -15
32 -15 41 -2 95 34 139 59 222 78 258 21 42 24 84 10 169 -13 76 1 128 34 128
19 0 29 -11 50 -56 33 -70 55 -132 52 -146 -1 -6 26 -11 69 -12 l72 -1 5 41
c6 57 63 173 92 186 59 26 67 -14 36 -163 -17 -84 -17 -88 0 -135 10 -26 28
-90 39 -143 12 -53 26 -106 31 -119 7 -17 2 -33 -24 -75 -45 -71 -59 -106 -52
-128 10 -30 22 -22 29 19 15 98 230 335 277 306 14 -8 11 -114 -6 -179 -21
-82 -60 -159 -96 -189 -16 -14 -29 -29 -29 -35 0 -36 72 29 103 93 32 66 67
193 67 245 -1 120 -77 116 -196 -11 -25 -27 -47 -48 -48 -46 -1 2 -13 48 -25
103 -13 55 -32 124 -42 153 -17 49 -17 60 -5 120 28 133 30 171 10 193 -21 23
-62 25 -93 3z"/>
<path d="M2743 2040 c-12 -5 -29 -20 -39 -34 -49 -76 74 -150 134 -81 12 14
22 35 22 45 0 26 -40 68 -70 74 -14 3 -35 1 -47 -4z m84 -46 c14 -22 14 -26
-1 -49 -36 -55 -137 -12 -106 45 23 43 80 45 107 4z"/>
<path d="M2754 1985 c-7 -18 3 -35 22 -35 20 0 30 30 13 41 -20 12 -29 11 -35
-6z"/>
<path d="M2495 2030 c-67 -26 -60 -116 10 -134 47 -12 104 26 105 70 0 42 -71
82 -115 64z m72 -34 c24 -21 26 -26 15 -50 -15 -33 -54 -43 -87 -22 -32 21
-33 59 -3 80 30 21 42 20 75 -8z"/>
<path d="M2505 1980 c-4 -7 -3 -16 3 -22 14 -14 45 -2 40 15 -6 16 -34 21 -43
7z"/>
<path d="M3615 1656 c-68 -32 -144 -111 -225 -233 -86 -129 -123 -223 -118
-298 l3 -55 -32 0 c-27 0 -34 4 -39 28 -3 15 -10 40 -14 55 -5 15 -7 34 -4 42
4 8 -1 18 -10 21 -17 7 -51 62 -43 70 4 4 38 11 70 13 5 1 5 6 1 12 -4 7 -23
9 -49 6 -41 -6 -44 -5 -69 32 -15 21 -38 49 -52 61 -14 15 -22 30 -19 41 3 9
-1 19 -9 22 -9 4 -16 -3 -19 -21 -4 -21 4 -37 44 -80 47 -51 61 -82 38 -82 -5
0 -7 -4 -4 -10 3 -5 14 -10 25 -10 10 0 21 -7 24 -16 9 -24 7 -34 -6 -32 -6 2
-14 -5 -16 -14 -3 -14 3 -18 27 -18 28 0 31 -4 45 -51 24 -81 29 -116 22 -172
-6 -49 -10 -54 -40 -65 -63 -23 -85 -17 -106 31 -11 23 -20 50 -20 59 0 9 -5
20 -11 23 -65 41 -460 53 -659 21 -63 -10 -124 -18 -136 -18 -16 1 -27 -13
-50 -59 -16 -34 -44 -76 -63 -95 -38 -37 -36 -56 3 -31 29 20 83 95 98 138 6
17 16 28 22 26 6 -3 45 2 86 10 108 20 484 29 574 13 92 -16 100 -21 116 -70
16 -50 52 -90 80 -90 11 0 20 -4 20 -9 0 -9 42 -7 76 4 21 7 46 72 48 126 1
24 4 27 22 23 37 -9 38 15 2 31 -31 13 -31 14 -8 15 45 1 57 20 62 97 3 58 11
85 43 149 84 169 195 302 284 341 50 22 56 23 70 8 30 -29 19 -142 -27 -302
-49 -168 -90 -256 -139 -299 -28 -25 -32 -32 -19 -37 64 -25 178 220 222 478
17 95 10 147 -22 180 -21 21 -40 19 -99 -9z"/>
<path d="M1374 1606 l-37 -37 6 -87 c15 -221 135 -504 237 -557 36 -19 40 -19
40 0 0 8 -6 15 -14 15 -23 0 -93 85 -129 157 -91 183 -136 438 -87 491 28 29
53 28 103 -7 50 -34 163 -164 230 -264 69 -103 99 -172 105 -245 6 -78 27 -79
27 -1 -1 94 -90 254 -234 417 -79 89 -137 136 -184 147 -22 6 -33 1 -63 -29z"/>
<path d="M2484 1529 c-64 -11 -104 -25 -104 -39 0 -13 6 -13 64 5 67 20 241
20 302 -1 49 -17 71 -11 41 11 -41 30 -195 42 -303 24z"/>
<path d="M2810 1530 c0 -14 48 -35 58 -26 8 9 -26 36 -45 36 -7 0 -13 -5 -13
-10z"/>
<path d="M2264 1356 c-43 -19 -64 -53 -64 -104 0 -128 209 -155 251 -33 9 25
7 38 -10 74 -34 70 -103 95 -177 63z m126 -33 c44 -40 51 -93 17 -127 -34 -34
-121 -37 -155 -6 -49 46 -36 118 26 144 54 22 78 19 112 -11z"/>
<path d="M2320 1315 c-18 -21 -5 -45 25 -45 14 0 28 7 31 15 7 17 -12 45 -31
45 -7 0 -18 -7 -25 -15z"/>
<path d="M2842 1355 c-57 -41 -69 -125 -24 -168 82 -79 207 -41 219 66 5 38 1
48 -24 77 -26 29 -37 34 -89 37 -43 3 -65 0 -82 -12z m144 -36 c36 -34 33 -89
-7 -123 -35 -29 -76 -33 -118 -11 -52 26 -57 91 -11 137 27 27 36 30 71 25 23
-3 52 -16 65 -28z"/>
<path d="M2870 1310 c-15 -29 0 -45 35 -36 20 5 26 12 23 29 -4 31 -43 35 -58
7z"/>
<path d="M2577 1243 c-14 -14 -5 -21 35 -26 43 -6 83 7 73 24 -7 10 -98 13
-108 2z"/>
<path d="M3030 1125 c0 -8 2 -15 4 -15 2 0 6 7 10 15 3 8 1 15 -4 15 -6 0 -10
-7 -10 -15z"/>
<path d="M2361 1109 c-52 -10 -99 -23 -105 -29 -21 -21 6 -23 76 -5 132 33
482 29 576 -6 27 -11 41 -4 26 11 -18 18 -274 50 -379 49 -55 -1 -142 -10
-194 -20z"/>
<path d="M3045 1086 c-2 -12 -3 -29 -3 -39 1 -16 3 -16 20 0 17 15 18 15 18
-15 0 -20 5 -32 13 -32 19 0 36 41 30 72 -4 21 -12 27 -39 30 -29 3 -35 0 -39
-16z"/>
<path d="M3147 1043 c-4 -3 -7 -11 -7 -17 0 -6 5 -5 12 2 6 6 9 14 7 17 -3 3
-9 2 -12 -2z"/>
<path d="M2123 993 c-9 -21 -22 -42 -29 -48 -19 -17 -25 -45 -9 -45 19 0 89
105 80 119 -11 20 -24 12 -42 -26z"/>
<path d="M1827 994 c-13 -14 -7 -24 15 -24 17 0 19 -3 10 -12 -17 -17 -15 -28
7 -28 22 0 36 18 36 45 0 15 -8 21 -30 23 -17 2 -34 0 -38 -4z"/>
<path d="M3470 977 c0 -11 59 -37 84 -37 18 0 2 18 -29 33 -43 21 -55 21 -55
4z"/>
<path d="M3482 918 c3 -7 13 -15 22 -16 12 -3 17 1 14 10 -3 7 -13 15 -22 16
-12 3 -17 -1 -14 -10z"/>
<path d="M1604 876 c-10 -8 -16 -18 -12 -22 10 -9 58 12 58 26 0 14 -23 12
-46 -4z"/>
<path d="M1997 853 c-14 -13 -7 -45 8 -40 8 4 17 2 20 -3 10 -16 22 -11 28 11
4 15 -1 22 -19 30 -30 11 -29 11 -37 2z"/>
<path d="M1620 831 c-14 -27 9 -40 27 -16 17 24 17 35 -2 35 -8 0 -19 -9 -25
-19z"/>
<path d="M3574 839 c-4 -7 7 -22 27 -37 99 -74 216 -226 289 -373 17 -35 44
-74 58 -87 l27 -23 -65 6 c-36 4 -80 11 -98 15 -26 7 -34 5 -39 -6 -3 -8 -4
-17 -2 -19 6 -5 157 -25 195 -25 27 0 47 -10 85 -42 34 -29 46 -44 37 -49 -21
-11 -128 -21 -128 -11 0 14 -92 32 -112 21 -23 -12 -38 -11 -38 2 0 6 6 9 14
6 8 -3 16 0 19 7 3 7 -4 13 -15 13 -10 1 -22 -5 -25 -13 -6 -16 -21 -18 -42
-5 -12 8 -12 12 -2 24 6 9 8 18 3 21 -4 3 -16 -8 -26 -25 -13 -22 -21 -27 -34
-20 -12 6 -29 1 -57 -17 -22 -14 -49 -26 -60 -27 -11 -1 -51 -6 -89 -10 -51
-6 -67 -5 -62 3 10 17 -34 15 -56 -2 -13 -9 -31 -11 -65 -5 -196 34 -244 33
-230 -5 5 -14 56 -16 409 -17 222 -1 478 -2 570 -3 93 0 168 2 168 6 0 4 -38
36 -85 71 -46 36 -82 67 -79 69 2 3 24 2 47 -3 80 -15 217 -22 217 -12 0 6
-57 16 -127 22 -71 7 -142 14 -159 17 -42 6 -92 62 -154 174 -89 161 -138 223
-251 321 -38 33 -60 46 -65 38z m346 -651 c0 -12 -48 -10 -55 2 -3 5 7 8 25 7
16 -1 30 -5 30 -9z"/>
<path d="M1524 789 c-11 -12 -44 -38 -75 -59 -65 -45 -152 -148 -220 -264 -34
-59 -61 -91 -91 -111 -24 -16 -64 -45 -90 -66 -32 -25 -62 -39 -95 -44 -55 -8
-66 -13 -58 -25 3 -5 17 -5 32 1 40 15 40 2 0 -39 -20 -21 -37 -41 -37 -45 0
-16 19 -4 74 44 l57 52 217 39 c119 22 221 44 227 49 20 20 -12 26 -65 14 -30
-8 -100 -21 -155 -30 -55 -10 -115 -22 -133 -27 -18 -6 -36 -8 -39 -5 -5 6 97
77 112 77 5 0 30 37 55 83 57 104 146 217 202 255 57 40 122 108 110 116 -5 3
-18 -4 -28 -15z"/>
<path d="M1827 669 c-76 -18 -152 -73 -183 -131 -20 -39 -18 -122 6 -167 67
-132 230 -189 359 -125 63 32 105 85 127 162 15 49 15 57 -1 97 -22 60 -111
150 -161 164 -45 13 -93 13 -147 0z m164 -35 c40 -20 108 -102 121 -145 19
-66 -18 -152 -88 -205 -32 -25 -48 -29 -113 -32 -68 -3 -82 -1 -131 25 -77 40
-120 105 -120 180 0 70 25 114 88 150 84 50 178 60 243 27z"/>
<path d="M1911 576 c-19 -23 -9 -49 22 -60 23 -8 31 -6 50 12 17 18 19 26 11
40 -14 22 -67 28 -83 8z"/>
<path d="M3233 670 c-62 -14 -133 -72 -164 -133 -12 -24 -20 -59 -20 -97 -1
-67 20 -105 84 -155 77 -58 221 -74 304 -34 99 48 157 171 121 256 -20 47 -79
114 -127 144 -37 24 -55 29 -105 28 -34 -1 -76 -4 -93 -9z m175 -34 c15 -8 43
-32 63 -53 91 -96 92 -177 1 -270 -47 -48 -81 -58 -180 -51 -79 6 -136 32
-180 83 -28 32 -32 43 -32 96 0 33 6 72 14 87 20 38 75 88 116 106 45 20 162
21 198 2z"/>
<path d="M3203 603 c-7 -2 -13 -18 -13 -34 0 -36 34 -54 65 -34 54 34 9 93
-52 68z"/>
<path d="M2510 365 c0 -13 23 -15 161 -15 124 0 160 3 157 13 -4 9 -47 13
-161 15 -135 2 -157 0 -157 -13z"/>
<path d="M3720 366 c0 -9 7 -16 16 -16 17 0 14 22 -4 28 -7 2 -12 -3 -12 -12z"/>
<path d="M3680 340 c0 -5 5 -10 10 -10 6 0 10 5 10 10 0 6 -4 10 -10 10 -5 0
-10 -4 -10 -10z"/>
<path d="M1408 171 c-49 -26 -60 -41 -33 -41 25 0 105 43 105 57 0 18 -18 15
-72 -16z"/>
</g>
</svg>
